<?xml version="1.0" encoding="utf-8"?>
<!-- Generator: Adobe Illustrator 23.0.0, SVG Export Plug-In . SVG Version: 6.00 Build 0)  -->
<svg version="1.1" id="Capa_1" xmlns="http://www.w3.org/2000/svg" xmlns:xlink="http://www.w3.org/1999/xlink" x="0px" y="0px"
	 viewBox="0 0 1224 792" style="enable-background:new 0 0 1224 792;" xml:space="preserve">
<style type="text/css">
	.st0{opacity:0.3;}
</style>
<polygon class="st0" points="1224,0 1224,181.3 1.8,650.6 0.5,651.1 0,651.3 0,0 "/>
<polygon class="st0" points="1224,0 1224,178.8 1220.5,179.9 0.5,546 0,546.1 0,0 "/>
<polygon class="st0" points="0,0 1224,0 1224,179.1 1220.5,179.9 0.5,437.3 0,437.4 "/>
<polygon class="st0" points="0,0 1224,0 1224,176 0.5,338.9 0,338.9 "/>
<polygon class="st0" points="66.5,-456.6 46.3,-411.6 61.8,-458.1 "/>
<polygon class="st0" points="0,0 1224,0 1224,161.1 0.5,216.5 0,216.5 "/>
<polygon class="st0" points="0,0 1224,0 1224,157.1 0.5,90.1 0,90.1 "/>
<polygon class="st0" points="1224,0 1224,157.1 56.1,0 "/>
</svg>
