<?xml version="1.0" encoding="utf-8"?>
<!-- Generator: Adobe Illustrator 23.0.0, SVG Export Plug-In . SVG Version: 6.00 Build 0)  -->
<svg version="1.1" id="Capa_1" xmlns="http://www.w3.org/2000/svg" xmlns:xlink="http://www.w3.org/1999/xlink" x="0px" y="0px"
	 viewBox="0 0 600 600" style="enable-background:new 0 0 600 600;" xml:space="preserve">
<style type="text/css">
	.st0{fill:none;stroke:#000000;stroke-width:5;stroke-miterlimit:10;}
	.st1{fill-rule:evenodd;clip-rule:evenodd;fill:#FFFFFF;}
	.st2{fill:#FFFFFF;}
	.st3{fill:#000200;}
</style>
<line class="st0" x1="10" y1="341.1" x2="589.4" y2="341.1"/>
<g>
	<path class="st1" d="M82.4,413.5c-25.4,0-46-20.6-46-46v-51c0-25.4,20.6-46,46-46H517c25.4,0,46,20.6,46,46v51
		c0,25.4-20.6,46-46,46H82.4z"/>
</g>
<g>
	<path class="st1" d="M82.4,401c-18.5,0-33.5-15-33.5-33.5v-51c0-18.5,15-33.5,33.5-33.5H517c18.5,0,33.5,15,33.5,33.5v51
		c0,18.5-15,33.5-33.5,33.5H82.4z"/>
	<path d="M517,285.5c17.1,0,31,13.9,31,31v51c0,17.1-13.9,31-31,31H82.4c-17.1,0-31-13.9-31-31v-51c0-17.1,13.9-31,31-31H517
		 M517,280.5H82.4c-19.9,0-36,16.1-36,36v51c0,19.9,16.1,36,36,36H517c19.9,0,36-16.1,36-36v-51C553,296.6,536.9,280.5,517,280.5
		L517,280.5z"/>
</g>
<circle class="st2" cx="299.7" cy="256.7" r="60.7"/>
<g>
	<path d="M299.7,211.7c24.8,0,45,20.2,45,45s-20.2,45-45,45c-24.8,0-45-20.2-45-45S274.9,211.7,299.7,211.7 M299.7,206.7
		c-27.6,0-50,22.4-50,50c0,27.6,22.4,50,50,50c27.6,0,50-22.4,50-50C349.7,229.1,327.3,206.7,299.7,206.7L299.7,206.7z"/>
</g>
<g>
	<path d="M102.4,355.8v-29.2h21.2v3.4h-17.2v9h16.2v3.4h-16.2v9.9h17.9v3.4H102.4z"/>
	<path d="M129.5,355.8v-29.2h4l15.3,22.9v-22.9h3.6v29.2h-4l-15.3-22.9v22.9H129.5z"/>
	<path d="M191.2,345.5l3.8,1c-0.8,3.2-2.3,5.5-4.4,7.3c-2.1,1.7-4.8,2.5-7.6,2.5c-3.1,0-5.7-0.6-7.6-1.9s-3.4-3.1-4.6-5.5
		c-1-2.5-1.5-5-1.5-7.8c0-3.1,0.6-5.7,1.7-8c1.1-2.3,2.9-4,5-5.2s4.6-1.7,7.1-1.7c2.9,0,5.3,0.8,7.4,2.3c2.1,1.5,3.4,3.6,4.2,6.3
		l-3.8,1c-0.8-2.1-1.7-3.6-2.9-4.6c-1.1-1-2.9-1.5-4.8-1.5c-2.3,0-4.2,0.6-5.5,1.5c-1.5,1.1-2.5,2.5-3.2,4.4c-0.6,1.9-1,3.6-1,5.5
		c0,2.5,0.4,4.6,1.1,6.5c0.8,1.9,1.9,3.2,3.4,4.2c1.5,1,3.2,1.3,5,1.3c2.1,0,4-0.6,5.5-1.9C189.7,349.9,190.6,348,191.2,345.5z"/>
	<path d="M198.6,341.5c0-4.8,1.3-8.6,3.8-11.5c2.7-2.7,5.9-4.2,10.1-4.2c2.7,0,5.2,0.6,7.3,1.9s3.8,3.1,5,5.3c1.1,2.3,1.7,5,1.7,7.8
		c0,3.1-0.6,5.5-1.7,8c-1.1,2.3-2.9,4.2-5.2,5.3s-4.6,1.7-7.1,1.7c-2.7,0-5.2-0.6-7.4-1.9c-2.1-1.3-3.8-3.1-5-5.3
		C199,346.4,198.6,344.2,198.6,341.5z M202.6,341.7c0,3.4,1,6.3,2.9,8.4s4.2,3.1,7.1,3.1c2.9,0,5.3-1,7.3-3.1s2.9-5,2.9-8.8
		c0-2.3-0.4-4.4-1.1-6.3c-0.8-1.7-1.9-3.1-3.4-4.2c-1.5-1-3.2-1.5-5.2-1.5c-2.7,0-5.2,1-7.1,2.9C203.6,334,202.6,337.3,202.6,341.7z
		"/>
	<path d="M231.5,355.8v-29.2h4l15.3,22.9v-22.9h3.6v29.2h-4l-15.3-22.9v22.9H231.5z"/>
	<path d="M259.7,346.4l3.6-0.4c0.2,1.5,0.6,2.7,1.1,3.6c0.6,1,1.5,1.7,2.9,2.3c1.3,0.6,2.9,1,4.4,1c1.5,0,2.9-0.2,3.8-0.6
		c1.1-0.4,1.9-1,2.5-1.7s0.8-1.5,0.8-2.5c0-1-0.2-1.7-0.8-2.5s-1.3-1.3-2.7-1.7c-0.8-0.4-2.5-0.8-5.2-1.3c-2.7-0.6-4.6-1.3-5.7-1.9
		c-1.3-0.8-2.5-1.7-3.1-2.7c-0.8-1.1-1-2.3-1-3.6c0-1.5,0.4-2.9,1.3-4.2c0.8-1.3,2.1-2.3,3.6-2.9c1.5-0.6,3.4-1,5.3-1
		c2.1,0,4,0.4,5.7,1c1.7,0.8,2.9,1.7,3.8,3.1c1,1.3,1.3,2.9,1.5,4.6l-3.6,0.2c-0.2-1.9-1-3.2-2.1-4.2s-2.9-1.3-5.2-1.3
		c-2.3,0-4,0.4-5.2,1.3c-1.1,0.8-1.5,1.9-1.5,3.1c0,1,0.4,1.9,1.1,2.7c0.8,0.8,2.7,1.3,5.9,2.1c3.2,0.8,5.3,1.3,6.5,1.9
		c1.7,0.8,2.9,1.7,3.8,3.1c1,1.3,1.1,2.7,1.1,4.2c0,1.5-0.4,3.1-1.3,4.4s-2.1,2.5-3.8,3.2c-1.7,0.8-3.6,1.1-5.7,1.1
		c-2.7,0-4.8-0.4-6.7-1.1c-1.7-0.8-3.2-1.9-4.2-3.4C260.3,350.1,259.7,348.4,259.7,346.4z"/>
	<path d="M295.6,355.8V330h-9.5v-3.4h23.1v3.4h-9.7v25.8H295.6z"/>
	<path d="M313.2,355.8v-29.2h13c2.7,0,4.6,0.2,5.9,0.8c1.3,0.6,2.5,1.5,3.2,2.9c0.8,1.3,1.1,2.9,1.1,4.4c0,2.1-0.8,3.8-2.1,5.2
		c-1.3,1.3-3.4,2.3-6.3,2.7c1,0.6,1.7,1,2.3,1.5c1.1,1,2.3,2.3,3.2,3.8l5.2,8h-4.6l-3.8-6.1c-1.1-1.7-2.1-3.1-2.9-4
		c-0.8-1-1.3-1.5-1.9-1.9s-1.1-0.6-1.7-0.8c-0.4,0-1.1-0.2-2.1-0.2h-4.4v13H313.2z M317.2,339.4h8.4c1.7,0,3.2-0.2,4.2-0.6
		c1-0.4,1.7-1,2.3-1.7c0.6-0.8,0.8-1.7,0.8-2.7c0-1.3-0.6-2.5-1.5-3.4c-1-1-2.7-1.3-4.8-1.3h-9.2v9.7H317.2z"/>
	<path d="M361.8,326.6h3.8v16.8c0,2.9-0.4,5.3-1,7.1s-1.9,3.1-3.6,4.2c-1.7,1.1-4,1.7-6.9,1.7c-2.7,0-5-0.4-6.7-1.3s-3.1-2.3-3.8-4
		c-0.8-1.7-1.1-4.2-1.1-7.3V327h3.8v16.8c0,2.5,0.2,4.4,0.8,5.5c0.6,1.1,1.3,2.1,2.5,2.9c1.1,0.6,2.5,1,4.2,1c2.9,0,5-0.6,6.1-1.9
		c1.1-1.3,1.9-3.8,1.9-7.4V326.6z"/>
	<path d="M393,345.5l3.8,1c-0.8,3.2-2.3,5.5-4.4,7.3c-2.1,1.7-4.8,2.5-7.6,2.5c-3.2,0-5.7-0.6-7.6-1.9c-1.9-1.3-3.4-3.1-4.6-5.5
		c-1-2.5-1.5-5-1.5-7.8c0-3.1,0.6-5.7,1.7-8c1.1-2.3,2.9-4,5-5.2s4.6-1.7,7.1-1.7c2.9,0,5.3,0.8,7.4,2.3c2.1,1.5,3.4,3.6,4.2,6.3
		l-3.8,1c-0.8-2.1-1.7-3.6-2.9-4.6c-1.3-1-2.9-1.5-4.8-1.5c-2.3,0-4.2,0.6-5.5,1.5c-1.5,1.1-2.5,2.5-3.2,4.4c-0.6,1.9-1,3.6-1,5.5
		c0,2.5,0.4,4.6,1.1,6.5c0.8,1.9,1.9,3.2,3.4,4.2c1.5,1,3.2,1.3,5,1.3c2.1,0,4-0.6,5.5-1.9C391.4,349.9,392.4,348,393,345.5z"/>
	<path d="M422.4,345.5l3.8,1c-0.8,3.2-2.3,5.5-4.4,7.3c-2.1,1.7-4.8,2.5-7.6,2.5c-3.2,0-5.7-0.6-7.6-1.9c-1.9-1.3-3.4-3.1-4.6-5.5
		c-1-2.5-1.5-5-1.5-7.8c0-3.1,0.6-5.7,1.7-8c1.1-2.3,2.9-4,5-5.2s4.6-1.7,7.1-1.7c2.9,0,5.3,0.8,7.4,2.3c2.1,1.5,3.4,3.6,4.2,6.3
		l-3.8,1c-0.8-2.1-1.7-3.6-2.9-4.6c-1.3-1-2.9-1.5-4.8-1.5c-2.3,0-4.2,0.6-5.5,1.5c-1.5,1.1-2.5,2.5-3.2,4.4c-0.6,1.9-1,3.6-1,5.5
		c0,2.5,0.4,4.6,1.1,6.5c0.8,1.9,1.9,3.2,3.4,4.2c1.5,1,3.2,1.3,5,1.3c2.1,0,4-0.6,5.5-1.9C420.8,349.9,422,348,422.4,345.5z"/>
	<path d="M431.7,355.8v-29.2h3.8v29.2H431.7z"/>
	<path d="M441.2,341.5c0-4.8,1.3-8.6,3.8-11.5c2.5-2.9,5.9-4.2,10.1-4.2c2.7,0,5.2,0.6,7.3,1.9c2.1,1.3,3.8,3.1,5,5.3
		c1.1,2.3,1.7,5,1.7,7.8c0,3.1-0.6,5.5-1.7,8c-1.1,2.3-2.9,4.2-5.2,5.3c-2.3,1.1-4.6,1.7-7.1,1.7c-2.7,0-5.2-0.6-7.4-1.9
		c-2.1-1.3-3.8-3.1-5-5.3C441.8,346.6,441.2,344.2,441.2,341.5z M445.3,341.7c0,3.4,1,6.3,2.9,8.4c1.9,2.1,4.2,3.1,7.1,3.1
		c2.9,0,5.3-1,7.3-3.1c1.9-2.1,2.9-5,2.9-8.8c0-2.3-0.4-4.4-1.1-6.3c-0.8-1.7-1.9-3.1-3.4-4.2c-1.5-1.1-3.2-1.5-5.2-1.5
		c-2.7,0-5.2,1-7.1,2.9C446.2,334,445.3,337.3,445.3,341.7z M452.7,324.9l2.7-5.5h4.8l-4.4,5.5H452.7z"/>
	<path d="M474.1,355.8v-29.2h4l15.3,22.9v-22.9h3.6v29.2h-4l-15.3-22.9v22.9H474.1z"/>
</g>
<g>
	<g>
		<path class="st3" d="M317.5,259.5c-5.5-1-11.1-1.5-16.7-1.6l2.5,7.7H315l-9.5,6.9l1.3,3.9c0.7-0.5,1.5-1,2.2-1.5
			c1.4-1,2.8-2.2,4-3.5c1-1.1,1.9-2.1,2.6-3.2c0.7-1,1.2-2.2,1.6-3.4c0.2-0.7,0.2-1.6,0.2-2.5c0-0.1,0-0.2,0-0.3v0
			c0-0.1,0-0.2,0-0.2v0C317.5,261.6,317.5,260.8,317.5,259.5z"/>
		<path class="st3" d="M296.7,279c1.2,0.7,2.2,1.2,3,1.6c0.7-0.4,1.8-0.9,3-1.6l-3-2.2L296.7,279z"/>
		<path class="st3" d="M281.9,259.5v2.3c0,0.1,0,0.2,0,0.3v0c0,0.1,0,0.2,0,0.3c0,0.9,0,1.8,0.2,2.5c0.3,1.2,0.9,2.4,1.6,3.4
			c0.7,1.1,1.5,2.1,2.6,3.2c1.3,1.3,2.6,2.5,4.1,3.5c0.7,0.5,1.5,1,2.2,1.5l1.3-3.9l-9.5-6.9h11.7l2.5-7.7
			C293,258,287.4,258.6,281.9,259.5z"/>
		<path class="st3" d="M320.9,253v-0.9c0-5.3,0-10.8,0-10.9c-7-1.5-14.1-2.2-21.2-2.2s-14.2,0.7-21.2,2.2c0,0.1,0,5.6,0,10.9v0.9
			c0,4.6,0,8.8,0,8.8c0,1.3,0,2.7,0.3,3.9v0c0,0.1,0,0.2,0.1,0.2c0.4,1.5,1.1,2.8,1.9,4.1c0.9,1.3,1.9,2.6,3,3.7
			c1.4,1.5,2.9,2.8,4.6,4c5.4,3.8,11.1,6.5,11.3,6.6c0.2-0.1,5.9-2.8,11.3-6.6c1.7-1.2,3.2-2.5,4.6-4c1.1-1.2,2.1-2.4,3-3.7
			c0.8-1.2,1.4-2.5,1.9-3.9c0-0.1,0-0.1,0-0.1c0-0.1,0.1-0.2,0.1-0.3c0.3-1.2,0.3-2.6,0.3-3.9C321,261.9,320.9,257.7,320.9,253z
			 M319.3,262.5c0,1,0,2-0.3,2.8c-0.1,0.2-0.1,0.3-0.1,0.5c0,0.1,0,0.1-0.1,0.2c-0.4,1.1-0.9,2.2-1.6,3.2c-0.8,1.2-1.7,2.3-2.8,3.5
			c-1.4,1.4-2.8,2.7-4.4,3.8c-4.2,2.9-8.6,5.3-10.3,6.1c-1.7-0.9-6.1-3.2-10.3-6.1c-1.5-1.1-3-2.3-4.4-3.8c-1.2-1.2-2.1-2.3-2.8-3.5
			c-0.7-1-1.2-2.2-1.6-3.4c0-0.1-0.1-0.2-0.1-0.3c0-0.1-0.1-0.2-0.1-0.2c-0.2-0.8-0.3-1.9-0.3-2.8c0-0.2,0-0.4,0-0.6
			c0-0.4,0-4.4,0-8.8v-0.9c0-3.7,0-7.5,0-9.5c6.4-1.2,13-1.9,19.6-1.9c6.6,0,13.1,0.6,19.6,1.9c0,2,0,5.8,0,9.5v0.9
			c0,4.4,0,8.4,0,8.8C319.3,262.1,319.3,262.3,319.3,262.5z"/>
		<path class="st3" d="M301.1,246.9v9.7c-0.5,0-0.9,0-1.4,0c-0.4,0-0.9,0-1.4,0v-9.7c0.4,0,0.9,0,1.4,0
			C300.1,246.9,300.6,246.9,301.1,246.9z"/>
		<path class="st3" d="M295.6,247v9.7c-0.9,0-1.8,0.1-2.7,0.1v-9.7C293.8,247.1,294.7,247,295.6,247z"/>
		<path class="st3" d="M290.1,247.4v9.7c-0.9,0.1-1.8,0.2-2.7,0.3v-9.7C288.3,247.5,289.2,247.4,290.1,247.4z"/>
		<path class="st3" d="M284.6,248v9.7c-0.9,0.1-1.8,0.3-2.7,0.4c0-1.3,0-2.9,0-4.5c0-1.7,0-3.5,0-5.1
			C282.8,248.3,283.7,248.2,284.6,248z"/>
		<path class="st3" d="M306.5,247.1v9.7c-0.9-0.1-1.8-0.1-2.7-0.1V247C304.7,247,305.6,247.1,306.5,247.1z"/>
		<path class="st3" d="M312,247.6v9.7c-0.9-0.1-1.8-0.2-2.7-0.3v-9.7C310.2,247.4,311.1,247.5,312,247.6z"/>
		<path class="st3" d="M317.5,258.1c-0.9-0.2-1.8-0.3-2.7-0.4V248c0.9,0.1,1.8,0.3,2.7,0.4v5.1C317.5,255.2,317.5,256.8,317.5,258.1
			z"/>
	</g>
</g>
</svg>
