<?xml version="1.0" encoding="utf-8"?>
<!-- Generator: Adobe Illustrator 23.0.0, SVG Export Plug-In . SVG Version: 6.00 Build 0)  -->
<svg version="1.1" id="Capa_1" xmlns="http://www.w3.org/2000/svg" xmlns:xlink="http://www.w3.org/1999/xlink" x="0px" y="0px"
	 viewBox="0 0 200 200" style="enable-background:new 0 0 200 200;" xml:space="preserve">
<style type="text/css">
	.st0{fill:#000200;}
</style>
<g>
	<g>
		<path class="st0" d="M171.7,91.1c-22.2-4-44.7-6-67.2-6.3l10.1,31h47.2l-38.2,27.7l5.1,15.8c2.9-1.9,5.9-3.9,8.9-6
			c5.7-4,11.2-8.8,16.3-14c4.2-4.4,7.7-8.6,10.5-12.8c2.8-4.2,4.9-8.8,6.3-13.8c0.8-2.7,0.8-6.4,0.9-9.9c0-0.4,0-0.9,0-1.3v-0.1
			c0-0.3,0-0.6,0-0.9v-0.1C171.7,99.5,171.7,96.1,171.7,91.1z"/>
		<path class="st0" d="M88,169.4c4.9,2.7,9,5,12,6.5c3-1.5,7.2-3.7,12-6.5l-12-8.7L88,169.4z"/>
		<path class="st0" d="M28.3,91.1v9.2c0,0.3,0,0.7,0,1c0,0,0,0,0,0.1c0,0.5,0,0.9,0,1.4c0.1,3.6,0.1,7.2,0.9,9.9
			c1.4,4.9,3.5,9.6,6.3,13.8c2.8,4.2,6.3,8.4,10.5,12.8c5.1,5.3,10.6,10,16.3,14c3,2.1,6,4.1,8.9,6l5.1-15.8l-38.2-27.7h47.2
			l10.1-31C73,85,50.5,87.1,28.3,91.1z"/>
		<path class="st0" d="M185.7,64.9v-3.6c0-21.4,0-43.7,0-43.9c-28.3-5.8-57-8.8-85.7-8.8c-28.7,0-57.4,2.9-85.7,8.8
			c0,0.2,0,22.5,0,43.9v3.6c0,18.6,0,35.6,0,35.6c0.2,5.2,0,10.8,1.4,15.8c0,0,0,0,0,0.1c0.1,0.3,0.2,0.6,0.3,0.9
			c1.8,5.9,4.3,11.3,7.7,16.5c3.5,5.4,7.7,10.3,12.2,14.9c5.7,5.9,11.9,11.2,18.6,15.9c21.8,15.3,44.7,26.4,45.6,26.8
			c0.8-0.4,23.8-11.5,45.5-26.8c6.7-4.7,12.9-10.1,18.6-15.9c4.5-4.6,8.6-9.6,12.2-14.9c3.3-4.9,5.7-10.2,7.5-15.7
			c0.1-0.2,0.1-0.4,0.2-0.6c0.1-0.4,0.2-0.8,0.3-1.2c1.4-5,1.2-10.6,1.4-15.8C185.7,100.5,185.7,83.5,185.7,64.9z M178.9,103
			c-0.1,4-0.2,8.1-1.1,11.4c-0.2,0.7-0.4,1.4-0.6,2c-0.1,0.2-0.2,0.5-0.2,0.7c-1.5,4.6-3.6,8.9-6.3,12.8c-3.1,4.6-6.8,9.2-11.4,14
			c-5.5,5.7-11.4,10.8-17.6,15.1C124.8,171,107,180.3,100,183.9c-7-3.5-24.8-12.9-41.7-24.8c-6.2-4.4-12.1-9.5-17.6-15.1
			c-4.6-4.8-8.4-9.3-11.4-14c-2.8-4.2-5-8.7-6.5-13.5c-0.1-0.4-0.2-0.7-0.3-1.1c-0.1-0.3-0.2-0.6-0.3-1c-0.9-3.3-1-7.4-1.1-11.4
			c0-0.9,0-1.7-0.1-2.6c0-1.4,0-17.7,0-35.5v-3.6c0-15,0-30.4,0-38.4c25.9-5,52.5-7.5,78.9-7.5c26.5,0,53,2.5,78.9,7.5
			c0,8,0,23.4,0,38.4v3.6c0,17.8,0,34,0,35.5C179,101.2,178.9,102.1,178.9,103z"/>
		<path class="st0" d="M105.5,40.2v39c-1.9,0-3.7,0-5.6,0c-1.8,0-3.7,0-5.5,0v-39c1.8,0,3.7,0,5.5,0
			C101.8,40.1,103.7,40.1,105.5,40.2z"/>
		<path class="st0" d="M83.5,40.4v39c-3.7,0.1-7.4,0.3-11,0.6V41C76.1,40.8,79.8,40.6,83.5,40.4z"/>
		<path class="st0" d="M61.4,41.9v39c-3.7,0.3-7.4,0.7-11,1.2v-39C54,42.7,57.7,42.3,61.4,41.9z"/>
		<path class="st0" d="M39.3,44.6v38.9c-3.7,0.6-7.4,1.2-11,1.8c0-5.4,0-11.7,0-18.3c0-6.9,0-14.1,0-20.6
			C32,45.8,35.6,45.2,39.3,44.6z"/>
		<path class="st0" d="M127.6,41v39c-3.7-0.2-7.4-0.4-11-0.6v-39C120.3,40.6,123.9,40.8,127.6,41z"/>
		<path class="st0" d="M149.7,43.1v39c-3.7-0.4-7.4-0.8-11-1.2v-39C142.3,42.3,146,42.7,149.7,43.1z"/>
		<path class="st0" d="M171.7,85.4c-3.7-0.6-7.3-1.3-11-1.8v-39c3.7,0.6,7.4,1.2,11,1.8V67C171.7,73.7,171.7,80,171.7,85.4z"/>
	</g>
</g>
</svg>
