<?xml version="1.0" encoding="utf-8"?>
<!-- Generator: Adobe Illustrator 23.0.0, SVG Export Plug-In . SVG Version: 6.00 Build 0)  -->
<svg version="1.1" id="Capa_1" xmlns="http://www.w3.org/2000/svg" xmlns:xlink="http://www.w3.org/1999/xlink" x="0px" y="0px"
	 viewBox="0 0 150 65" style="enable-background:new 0 0 150 65;" xml:space="preserve">
<style type="text/css">
	.st0{fill-rule:evenodd;clip-rule:evenodd;}
</style>
<g>
	<g>
		<g>
			<path class="st0" d="M84.1,15.5c-0.3,0-0.6,1.1-1.1,1.7c-0.4,0.4-0.9,0.4-1.2,0.9c-0.1,0.2-0.1,0.5-0.2,0.8c-0.2,0.6-1,0.7-1,1.3
				c0,0.7,0.7,0.8,1.2,1.4c0.5,0.4,0.5,0.7,1,0.9c0.5,0.2,1.2-0.4,1.8-0.2c0.5,0.2,1,0.3,1.1,0.8c0.1,0.5,0,1.2-0.6,1.2
				c-0.2,0-1.1-0.3-2.2-0.2c-1.4,0.2-2.9,0.6-3,2.1c-0.1,0.8,1,1.8,2,1.6c0.7-0.1,0.4-1,0.7-1.4c0.5-0.5,3.3,1.8,5.9,1.8
				c1.1,0,1.9-0.3,2.7-1.1c0.1-0.1,0.2-0.2,0.3-0.2c0.1,0,0.3,0.1,0.4,0.2c2.1,1.7,3.7,5.1,11.4,5.1c1.1,0,2.3,0.5,3.3,1.5
				c0.9,0.8,1.4,2.1,1.9,3.5c0.8,2,2.2,3.9,4.3,6c0.1,0.1,1.8,1.5,2,1.6c0,0,0.1,0.3,0.1,0.5c-0.1,1.3-0.2,5,2.5,5.2
				c0.7,0,0.5-0.4,0.5-0.8c0-0.7-0.1-1.3,0.2-2c0.5-0.9-1-1.3-1-3.3c0-1.5-1.2-1.2-1.8-2.3c-0.4-0.7-0.7-1-0.7-1.8
				c0.1-4.5-1-7.4-1.5-8.2c-0.4-0.5-0.8-0.8-0.4-1c2.3-1.5,2.9-3,2.9-3c1.2-2.9,2.3-5.6,3.9-6.7c0.3-0.2,1.1-0.8,1.6-1.1
				c1.4-0.7,2.2-1.1,2.6-1.5c0.7-0.6,1.2-2,0.5-2.8c-0.8-1-2.1-0.2-2.7,0.1c-4.3,2.5-4.9,7-6.4,9.6c-1.2,2.1-3.1,3.6-4.8,3.7
				c-1.3,0.1-2.7-0.2-4.1-0.8c-3.4-1.5-5.2-3.4-5.6-3.7c-0.9-0.7-7.9-7.6-13.6-7.9c0,0-0.7-1.4-0.9-1.4c-0.4-0.1-0.8,0.8-1.1,0.9
				C84.9,16.5,84.4,15.4,84.1,15.5L84.1,15.5z"/>
			<g>
				<path class="st0" d="M121.1,50.1c0,0.7-0.5,1.2-1.2,1.2c-0.7,0-1.2-0.5-1.2-1.2c0-0.6,0.5-1.2,1.2-1.2
					C120.6,48.9,121.1,49.4,121.1,50.1L121.1,50.1z M119.9,49.1c-0.5,0-1,0.5-1,1c0,0.6,0.4,1,1,1c0.5,0,1-0.5,1-1
					C120.9,49.6,120.5,49.1,119.9,49.1L119.9,49.1L119.9,49.1z"/>
				<path class="st0" d="M120.5,50.8h-0.3l-0.4-0.5v0.5h-0.3v-1.4h0.3c0.4,0,0.6,0.1,0.6,0.4c0,0.2-0.1,0.3-0.3,0.4l0,0L120.5,50.8
					L120.5,50.8z M119.8,50c0.2,0,0.3-0.1,0.3-0.2c0-0.1-0.1-0.2-0.3-0.2h-0.1L119.8,50L119.8,50L119.8,50z"/>
			</g>
		</g>
		<rect x="69.1" y="9.1" class="st0" width="2.7" height="48.9"/>
		<g>
			<g>
				<path d="M48.6,35.7l-0.3,0l-0.1-0.1h0l-0.3-0.2c-0.1-0.1-0.3-0.3-0.5-0.4l0,0.6l-1.1-0.1c-0.8-0.1-1.5-0.1-2.2-0.2l-0.5,0
					l-0.1,0c-0.8,0-1.5-0.1-2.2-0.1l-0.6,0c0,0-0.4-0.7-0.4-0.8c-0.5,0-0.9,0-1.3,0L38.7,35h0l0.6,1.8h9.1L41,42.1l1,3
					c0.6-0.4,1.1-0.8,1.7-1.2c1.1-0.8,2.2-1.7,3.1-2.7c0.8-0.8,1.5-1.7,2-2.5c0.5-0.8,0.9-1.7,1.2-2.7c0-0.1,0.1-0.2,0.1-0.3
					C49.6,35.8,49.1,35.7,48.6,35.7z"/>
				<path d="M36.4,45.5l-2.3,1.7c0.9,0.5,1.7,1,2.3,1.2c0.6-0.3,1.4-0.7,2.3-1.3L36.4,45.5z"/>
				<path d="M34.7,33.4c-0.2,0-0.5,0-0.8,0c-0.4,0-0.8,0-1.3,0l0,1.6l-0.9,0c-0.7,0-1.5,0.1-2.2,0.1l-1.1,0.1l0-0.4
					c-0.5,0.3-1.3,0.5-2.3,0.6c-0.4,0-0.9,0.1-1.3,0.1l-0.1,0c-0.6,0.1-1.3,0.1-1.9,0.2c-0.1,0-0.1,0-0.2,0c0,0.1,0,0.3,0.1,0.4
					c0.3,1,0.7,1.8,1.2,2.7c0.5,0.8,1.2,1.6,2,2.5c1,1,2,1.9,3.1,2.7c0.6,0.4,1.2,0.8,1.7,1.2l1-3.1l-7.4-5.3h9.1L34.7,33.4z"/>
				<path d="M37.5,22.2v6.4c-0.1,0.1-0.1,0.3-0.2,0.4c-0.3-0.5-0.9-1-1.9-1.3v-5.5c0.4,0,0.7,0,1.1,0C36.8,22.2,37.1,22.2,37.5,22.2
					z"/>
				<path d="M33.2,22.3v5.3h-2.1v-5.2C31.8,22.3,32.5,22.3,33.2,22.3z"/>
				<path d="M29,22.6v5h-2.1v-4.8C27.6,22.7,28.3,22.6,29,22.6z"/>
				<path d="M24.7,23.1v4.5h-2.1v-0.2c0-1.3,0-2.7,0-4C23.3,23.3,24,23.2,24.7,23.1z"/>
				<path d="M41.7,22.4v5.8c0,0,0,0,0,0l-0.3-0.5h-1.8v-5.3C40.3,22.3,41,22.3,41.7,22.4z"/>
				<path d="M46,22.8v4.8h-2.1v-5C44.6,22.6,45.3,22.7,46,22.8z"/>
				<path d="M50.2,27.4v0.4c-0.5-0.1-1-0.2-1.6-0.2h-0.5v-4.5c0.7,0.1,1.4,0.2,2.1,0.3C50.2,24.7,50.2,26.1,50.2,27.4z"/>
				<path d="M21.2,28.6h-2.5c-0.5,0.6-0.9,1.2-1.4,1.8c-0.4-0.6-0.9-1.2-1.3-1.8h-2.5c0.8,1.1,1.5,2.2,2.3,3.2
					c0.1,0.2,0.2,0.3,0.4,0.5c-0.4,0.7-0.9,1.3-1.3,2c-0.4,0.7-0.9,1.4-1.3,2.1c0.8-0.2,1.7-0.3,2.5-0.5c0.3-0.5,0.6-1,1-1.5
					c0.1-0.2,0.2-0.4,0.4-0.5c0.2,0.2,0.3,0.4,0.5,0.6c0.3,0.3,0.6,0.7,0.9,1c0.8-0.1,1.6-0.3,2.5-0.4c-0.2-0.2-0.3-0.4-0.5-0.5
					c-0.7-0.8-1.4-1.6-2.1-2.5c0.1-0.1,0.2-0.3,0.3-0.4C19.6,30.6,20.4,29.6,21.2,28.6z"/>
				<path d="M24.8,34.6c0.4,0,0.9-0.1,1.3-0.1c1.9-0.2,2.8-0.8,2.8-2.1c0-0.4-0.1-0.8-0.3-1h0c-0.4-0.5-1.2-0.7-2.4-0.7
					c-0.6,0-1.1,0-1.7,0.1c-0.4,0-0.6-0.1-0.6-0.2c0-0.1,0.2-0.2,0.6-0.2c1.5,0,3-0.1,4.5-0.1c0-0.5,0-1.1,0-1.6h-4.4
					c-0.7,0-1.3,0.1-1.7,0.3c-0.7,0.3-1.1,0.9-1.1,1.8c0,0.4,0.1,0.7,0.2,0.9c0.2,0.4,0.5,0.6,0.9,0.8c0.4,0.2,1,0.2,1.7,0.2
					c0.6,0,1.1-0.1,1.7-0.1c0.4,0,0.6,0,0.6,0.2c0,0.2-0.2,0.2-0.6,0.3C25,32.9,23.9,33,22.8,33c-0.4,0-0.7,0.1-1.1,0.1
					c0,0.5,0,0.9,0,1.4c0,0.1,0,0.3,0,0.4c0.4,0,0.8-0.1,1.1-0.1C23.5,34.8,24.1,34.7,24.8,34.6L24.8,34.6z"/>
				<path d="M38.1,34c0.1-0.3,0.3-0.5,0.4-0.8c0.9,0,1.7,0,2.6,0.1c0.1,0.3,0.3,0.5,0.4,0.8c0.7,0,1.5,0.1,2.2,0.1
					c-0.5-1-0.9-1.9-1.4-2.9c-0.5-0.9-0.9-1.9-1.4-2.8h-2.2c-0.5,0.9-0.9,1.8-1.4,2.8c-0.5,0.9-0.9,1.8-1.4,2.7
					C36.6,34,37.3,34,38.1,34z M39.2,31.3c0.2-0.4,0.4-0.8,0.6-1.2c0.2,0.4,0.4,0.8,0.6,1.2c0.1,0.1,0.1,0.3,0.2,0.4
					c-0.5,0-1,0-1.5,0C39.1,31.6,39.1,31.5,39.2,31.3z"/>
				<path d="M29.5,31.4c0,0.9,0,1.9,0,2.8c0.7,0,1.5-0.1,2.2-0.1c0-0.5,0-1.1,0-1.6c0.7,0,1.5,0,2.2,0c1.4,0,2.3-0.4,2.6-1.1
					c0.1-0.2,0.2-0.5,0.2-0.8c0-1.3-0.9-1.9-2.8-1.9h-4.4C29.5,29.5,29.5,30.4,29.5,31.4z M31.7,30.2c0.7,0,1.5,0,2.2,0
					c0.4,0,0.6,0.1,0.6,0.4c0,0.3-0.2,0.4-0.6,0.4c-0.7,0-1.5,0-2.2,0C31.7,30.7,31.7,30.4,31.7,30.2z"/>
				<path d="M50.6,34.2c-0.5-0.4-0.9-0.8-1.4-1.2c0.6,0.1,1,0,1.4-0.2c0.4-0.2,0.7-0.6,0.8-1.2c0-0.2,0.1-0.4,0.1-0.7
					c0-0.8-0.3-1.5-0.8-1.8c-0.5-0.3-1.1-0.5-2-0.5h-4.4c0,0.9,0,1.9,0,2.8c0,1,0,1.9,0,2.9c0.7,0.1,1.5,0.1,2.2,0.2
					c0-0.6,0-1.1,0-1.7c0.7,0.6,1.4,1.2,2.1,1.8h0l0.1,0.1c0.6,0.1,1.3,0.1,1.9,0.2c0.3,0,0.6,0.1,0.9,0.1c-0.2-0.2-0.4-0.3-0.5-0.5
					C50.8,34.4,50.7,34.3,50.6,34.2z M48.6,31.2c-0.7,0-1.5-0.1-2.2-0.1c0-0.3,0-0.6,0-0.8c0.7,0,1.5,0,2.2,0.1
					c0.4,0,0.6,0.2,0.6,0.5C49.2,31.1,49,31.2,48.6,31.2z"/>
				<path d="M56,32.2c0.1-0.1,0.3-0.3,0.4-0.4c0.9-1,1.8-2,2.8-3.2h-2.8c-0.7,0.9-1.5,1.7-2.2,2.5c0-0.8,0-1.6,0-2.5H52c0,1,0,2,0,3
					c0,1,0,2,0,2.9c0,0.2,0,0.4,0,0.6c0.7,0.1,1.5,0.2,2.2,0.3c0-0.3,0-0.7,0-1c0-0.5,0-0.9,0-1.4c0.4,0.4,0.7,0.9,1.1,1.4h0
					c0.4,0.5,0.7,1,1.1,1.5c0.9,0.2,1.8,0.3,2.8,0.5c-0.5-0.7-1-1.4-1.5-2.1C57.1,33.5,56.6,32.8,56,32.2z"/>
				<path d="M22.7,21.5c0.2,0,0.4-0.1,0.5-0.1c0,0.1,0,0.2,0.1,0.2c0.1,0.1,0.1,0.1,0.3,0.1c0.1,0,0.1,0,0.2-0.1
					c0,0,0.1-0.1,0.1-0.1c0,0,0-0.1-0.1-0.1c0,0-0.1-0.1-0.3-0.1c-0.3,0-0.4-0.1-0.5-0.1c-0.1-0.1-0.2-0.2-0.2-0.3
					c0-0.1,0-0.2,0.1-0.3c0.1-0.1,0.1-0.2,0.2-0.2c0.1-0.1,0.3-0.1,0.5-0.1c0.2,0,0.4,0,0.5,0c0.1,0.1,0.2,0.2,0.2,0.4
					c-0.2,0-0.4,0.1-0.5,0.1c0-0.1,0-0.1-0.1-0.2c0,0-0.1,0-0.2,0c-0.1,0-0.1,0-0.2,0.1c0,0-0.1,0.1-0.1,0.1c0,0,0,0.1,0,0.1
					c0,0,0.1,0,0.2,0c0.2,0,0.4,0,0.5,0.1c0.1,0,0.2,0.1,0.2,0.2c0,0.1,0.1,0.2,0.1,0.3c0,0.1,0,0.2-0.1,0.3
					c-0.1,0.1-0.2,0.2-0.3,0.3c-0.1,0.1-0.3,0.1-0.4,0.1c-0.3,0.1-0.5,0-0.7-0.1C22.8,21.8,22.7,21.7,22.7,21.5z"/>
				<path d="M25.4,19.8c0.3,0,0.6-0.1,1-0.1c0.2,0,0.4,0,0.5,0.1c0.1,0.1,0.2,0.2,0.2,0.4c0,0.2-0.1,0.3-0.2,0.5
					c-0.1,0.1-0.3,0.2-0.5,0.2c-0.1,0-0.2,0-0.3,0c0,0.2,0,0.5,0,0.7c-0.2,0-0.4,0.1-0.6,0.1C25.4,21,25.4,20.4,25.4,19.8z M26,20.5
					c0,0,0.1,0,0.1,0c0.1,0,0.2,0,0.2-0.1c0,0,0.1-0.1,0.1-0.2c0-0.1,0-0.1-0.1-0.1c0,0-0.1,0-0.2,0c-0.1,0-0.1,0-0.2,0
					C26,20.2,26,20.4,26,20.5z"/>
				<path d="M27.9,20.4c0-0.3,0.1-0.5,0.3-0.7c0.2-0.2,0.4-0.3,0.7-0.3c0.3,0,0.5,0,0.7,0.2c0.2,0.2,0.3,0.4,0.3,0.7
					c0,0.2,0,0.4-0.1,0.5c-0.1,0.1-0.2,0.3-0.3,0.4c-0.1,0.1-0.3,0.1-0.5,0.2c-0.2,0-0.4,0-0.5,0c-0.1-0.1-0.2-0.1-0.3-0.3
					C28,20.8,27.9,20.6,27.9,20.4z M28.5,20.4c0,0.2,0,0.3,0.1,0.4c0.1,0.1,0.2,0.1,0.3,0.1c0.1,0,0.2-0.1,0.3-0.1
					c0.1-0.1,0.1-0.2,0.1-0.4c0-0.2,0-0.3-0.1-0.4c-0.1-0.1-0.2-0.1-0.3-0.1c-0.1,0-0.2,0.1-0.3,0.2C28.6,20,28.5,20.2,28.5,20.4z"
					/>
				<path d="M30.9,21.1c0-0.6,0-1.2,0-1.9c0.3,0,0.6,0,1-0.1c0.2,0,0.3,0,0.4,0c0.1,0,0.2,0.1,0.2,0.2c0.1,0.1,0.1,0.2,0.1,0.3
					c0,0.1,0,0.2-0.1,0.3c0,0.1-0.1,0.1-0.2,0.2c0,0-0.1,0.1-0.2,0.1c0.1,0,0.1,0,0.2,0.1c0,0,0.1,0,0.1,0.1c0,0,0.1,0.1,0.1,0.1
					c0.1,0.2,0.2,0.4,0.3,0.5c-0.2,0-0.4,0-0.7,0c-0.1-0.2-0.2-0.4-0.3-0.6c0-0.1-0.1-0.1-0.1-0.1c0,0-0.1,0-0.1,0c0,0,0,0-0.1,0
					c0,0.3,0,0.5,0,0.8C31.3,21.1,31.1,21.1,30.9,21.1z M31.5,19.9c0.1,0,0.2,0,0.2,0c0,0,0.1,0,0.2,0c0,0,0.1,0,0.1-0.1
					c0,0,0-0.1,0-0.1c0-0.1,0-0.1-0.1-0.1c0,0-0.1,0-0.2,0c-0.1,0-0.2,0-0.3,0C31.5,19.7,31.5,19.8,31.5,19.9z"/>
				<path d="M33.6,19.1c0.6,0,1.2,0,1.8,0c0,0.2,0,0.3,0,0.5c-0.2,0-0.4,0-0.6,0c0,0.5,0,0.9,0,1.4c-0.2,0-0.4,0-0.6,0
					c0-0.5,0-0.9,0-1.4c-0.2,0-0.4,0-0.6,0C33.6,19.4,33.6,19.2,33.6,19.1z"/>
				<path d="M36.2,20.3c0.2,0,0.4,0,0.5,0c0,0.1,0,0.2,0.1,0.2c0.1,0.1,0.1,0.1,0.3,0.1c0.1,0,0.1,0,0.2-0.1c0,0,0.1-0.1,0.1-0.1
					c0,0,0-0.1-0.1-0.1c0,0-0.1-0.1-0.3-0.1c-0.3-0.1-0.4-0.1-0.5-0.2c-0.1-0.1-0.2-0.2-0.2-0.4c0-0.1,0-0.2,0.1-0.3
					c0.1-0.1,0.1-0.2,0.3-0.2c0.1,0,0.3-0.1,0.5-0.1c0.2,0,0.4,0,0.5,0.1c0.1,0.1,0.2,0.2,0.2,0.4c-0.2,0-0.4,0-0.5,0
					c0-0.1,0-0.1-0.1-0.2c0,0-0.1-0.1-0.2-0.1c-0.1,0-0.1,0-0.2,0c0,0-0.1,0.1-0.1,0.1c0,0,0,0.1,0,0.1c0,0,0.1,0,0.2,0.1
					c0.3,0.1,0.4,0.1,0.5,0.2c0.1,0.1,0.2,0.1,0.2,0.2c0,0.1,0.1,0.2,0.1,0.3c0,0.1,0,0.2-0.1,0.3c-0.1,0.1-0.2,0.2-0.3,0.2
					c-0.1,0.1-0.3,0.1-0.4,0.1c-0.3,0-0.5-0.1-0.7-0.2C36.3,20.6,36.2,20.5,36.2,20.3z"/>
				<path d="M41.8,20.3c0.2,0.1,0.3,0.1,0.5,0.2c0,0.1-0.1,0.3-0.2,0.3C42.1,20.9,42,21,41.9,21c-0.1,0-0.2,0.1-0.4,0
					c-0.2,0-0.4-0.1-0.5-0.1c-0.1-0.1-0.2-0.2-0.3-0.3c-0.1-0.2-0.1-0.3-0.1-0.6c0-0.3,0.1-0.5,0.2-0.7c0.2-0.2,0.4-0.2,0.7-0.2
					c0.2,0,0.4,0.1,0.6,0.2c0.1,0.1,0.2,0.3,0.3,0.5c-0.2,0-0.3,0.1-0.5,0.1c0-0.1,0-0.1-0.1-0.1c0,0-0.1-0.1-0.1-0.1
					c0,0-0.1,0-0.2,0c-0.1,0-0.2,0-0.3,0.1c-0.1,0.1-0.1,0.2-0.1,0.4c0,0.2,0,0.3,0.1,0.4c0.1,0.1,0.2,0.1,0.3,0.1
					c0.1,0,0.2,0,0.3-0.1C41.8,20.5,41.8,20.4,41.8,20.3z"/>
				<path d="M43.4,19.3c0.2,0,0.4,0,0.6,0.1c0,0.5,0,0.9,0,1.4c0.3,0,0.6,0.1,0.9,0.1c0,0.2,0,0.3,0,0.5c-0.5-0.1-1-0.1-1.5-0.1
					C43.4,20.6,43.4,19.9,43.4,19.3z"/>
				<path d="M47,19.7c0.2,0,0.4,0.1,0.6,0.1c0,0.4,0,0.7,0,1.1c0,0.1,0,0.2-0.1,0.3c0,0.1-0.1,0.2-0.2,0.2c-0.1,0.1-0.1,0.1-0.2,0.1
					c-0.1,0-0.2,0-0.4,0c-0.1,0-0.2,0-0.3-0.1c-0.1,0-0.2-0.1-0.3-0.1c-0.1,0-0.1-0.1-0.2-0.2c-0.1-0.1-0.1-0.2-0.1-0.2
					c0-0.1-0.1-0.2-0.1-0.3c0-0.4,0-0.7,0-1.1c0.2,0,0.4,0,0.6,0.1c0,0.4,0,0.8,0,1.1c0,0.1,0,0.2,0.1,0.2c0.1,0.1,0.1,0.1,0.2,0.1
					c0.1,0,0.2,0,0.2-0.1c0.1,0,0.1-0.1,0.1-0.2C47,20.5,47,20.1,47,19.7z"/>
				<path d="M48.7,19.9c0.4,0.1,0.7,0.1,1.1,0.2c0.2,0,0.3,0.1,0.4,0.2c0.1,0.1,0.1,0.2,0.1,0.4c0,0.1,0,0.2-0.1,0.3
					c0,0-0.1,0.1-0.2,0.1c0.1,0.1,0.2,0.1,0.3,0.2c0.1,0.1,0.1,0.2,0.1,0.3c0,0.1,0,0.2-0.1,0.2c0,0.1-0.1,0.1-0.2,0.2
					c0,0-0.1,0-0.2,0c-0.1,0-0.2,0-0.3,0c-0.3-0.1-0.7-0.1-1-0.2C48.7,21.2,48.7,20.6,48.7,19.9z M49.3,20.8c0.1,0,0.2,0,0.2,0
					c0.1,0,0.2,0,0.2,0c0,0,0.1-0.1,0.1-0.1c0-0.1,0-0.1-0.1-0.1c0,0-0.1-0.1-0.2-0.1c-0.1,0-0.2,0-0.3,0
					C49.3,20.5,49.3,20.6,49.3,20.8z M49.3,21.5c0.1,0,0.2,0,0.3,0c0.1,0,0.2,0,0.2,0c0,0,0.1-0.1,0.1-0.1c0-0.1,0-0.1-0.1-0.1
					c0,0-0.1-0.1-0.2-0.1c-0.1,0-0.2,0-0.3,0C49.3,21.2,49.3,21.4,49.3,21.5z"/>
				<path d="M60.9,35.1c-0.5-0.7-1-1.5-1.6-2.2c-0.2-0.2-0.3-0.5-0.5-0.7c0.7-0.8,1.3-1.5,2-2.3l2.9-3.5H52.9v-0.1
					c0-4.1,0-8.4,0-8.5c-5.4-1.1-11-1.7-16.5-1.7c-5.5,0-11.1,0.6-16.5,1.7c0,0,0,4.3,0,8.5v0.1H9.3l2.3,3.4
					c0.6,0.8,1.2,1.7,1.8,2.5c-0.2,0.3-0.3,0.5-0.5,0.8c-0.5,0.7-0.9,1.5-1.3,2.2L9,39.5l4.8-1c0.8-0.2,1.6-0.3,2.5-0.5l0.9-0.2
					l0.6-0.1l1.1-0.2c0.4-0.1,0.9-0.1,1.3-0.2c0.3,1,0.8,2,1.4,2.9c0.7,1,1.5,2,2.4,2.9c1.1,1.1,2.3,2.2,3.6,3.1
					c4.2,3,8.6,5.1,8.8,5.2c0.2-0.1,4.6-2.2,8.8-5.2c1.3-0.9,2.5-1.9,3.6-3.1c0.9-0.9,1.7-1.8,2.3-2.9c0.6-0.9,1.1-1.9,1.4-2.9
					c0.5,0.1,0.9,0.1,1.4,0.2l1.3,0.2L56,38c0.9,0.2,1.8,0.3,2.7,0.5l5.3,1.1L60.9,35.1z M56.3,36.8l-0.4-0.1l-0.2-0.3
					c-0.1-0.2-0.3-0.4-0.4-0.6l0,0.8l-1.2-0.2c-0.7-0.1-1.4-0.2-2.2-0.3l-0.1,0l-0.3,0c0,0.2-0.1,0.3-0.1,0.5c0,0.1-0.1,0.3-0.1,0.4
					c0,0,0,0.1,0,0.1c-0.3,0.9-0.7,1.7-1.2,2.5c-0.6,0.9-1.3,1.8-2.2,2.7c-1.1,1.1-2.2,2.1-3.4,2.9c-3.3,2.3-6.7,4.1-8,4.8
					c-1.4-0.7-4.8-2.5-8-4.8c-1.2-0.8-2.3-1.8-3.4-2.9c-0.9-0.9-1.6-1.8-2.2-2.7c-0.5-0.8-1-1.7-1.3-2.6c0-0.1,0-0.1-0.1-0.2
					c0-0.1,0-0.1-0.1-0.2c0-0.2-0.1-0.3-0.1-0.5l-0.1,0c-0.8,0.1-1.6,0.2-2.4,0.4l-0.5,0.1l-0.4-0.4c-0.2-0.2-0.4-0.4-0.6-0.6
					c-0.2,0.3-0.4,0.6-0.6,1l-0.2,0.4l-0.4,0.1c-0.8,0.2-1.7,0.3-2.5,0.5l-2.2,0.5l1.1-1.9c0.4-0.7,0.9-1.5,1.3-2.1
					c0.3-0.5,0.6-1,1-1.5c-0.8-1-1.5-2-2.2-3.1l-1.1-1.5h4.9l0.3,0.4c0.2,0.3,0.4,0.5,0.5,0.8c0.2-0.3,0.4-0.5,0.6-0.8l0.3-0.4h3
					v-1.3c0-2.9,0-5.9,0-7.4c5-1,10.1-1.5,15.2-1.5c5.1,0,10.2,0.5,15.2,1.5c0,1.5,0,4.5,0,7.4v1.3h3.5l0,0.9
					c0.2-0.2,0.3-0.4,0.5-0.6l0.3-0.3h5.3l-1.3,1.6c-0.8,1-1.7,2-2.6,3c0.4,0.5,0.8,1,1.1,1.5c0.5,0.7,1,1.4,1.5,2.1l1.4,2L59,37.3
					C58,37.1,57.1,37,56.3,36.8z"/>
			</g>
		</g>
	</g>
</g>
</svg>
