<?xml version="1.0" encoding="utf-8"?>
<!-- Generator: Adobe Illustrator 23.0.0, SVG Export Plug-In . SVG Version: 6.00 Build 0)  -->
<svg version="1.1" id="Capa_1" xmlns="http://www.w3.org/2000/svg" xmlns:xlink="http://www.w3.org/1999/xlink" x="0px" y="0px"
	 viewBox="0 0 1497 720" style="enable-background:new 0 0 1497 720;" xml:space="preserve">
<style type="text/css">
	.st0{fill:#6CEBBB;}
	.st1{fill:#3E6D33;}
</style>
<rect x="-0.5" y="-0.5" class="st0" width="1497" height="720"/>
<g>
	<g>
		<path class="st1" d="M631.5,336c-75.5-13.4-151.8-20.5-228.2-21.4L437.5,420h160.3l-129.7,94.2l17.4,53.7
			c10-6.4,20.2-13.2,30.3-20.3c19.5-13.7,38.1-29.7,55.5-47.7c14.4-14.9,26.1-29.2,35.7-43.6c9.4-14.3,16.7-30.1,21.4-46.8
			c2.6-9.2,2.8-21.7,3-33.7c0-1.5,0.1-3,0.1-4.5v-0.3c0.1-1,0.1-2.2,0.1-3.2v-0.4C631.5,364.8,631.5,353.1,631.5,336z"/>
		<path class="st1" d="M347.1,602.1c16.5,9.3,30.7,16.8,40.8,22c10.1-5.2,24.3-12.7,40.9-22.1L388,572.4L347.1,602.1z"/>
		<path class="st1" d="M144.2,336v31.3c0,1.1,0.1,2.3,0.1,3.4c0.1,0.1,0.1,0.2,0,0.3c0.1,1.6,0.1,3.1,0.2,4.7
			c0.2,12.1,0.4,24.6,3,33.7c4.7,16.8,11.9,32.5,21.4,46.8c9.6,14.4,21.2,28.7,35.7,43.6c17.3,17.9,35.9,33.9,55.5,47.7
			c10.1,7.1,20.3,14,30.4,20.4l17.5-53.8L178.2,420h160.2l34.3-105.3C296.3,315.5,219.7,322.6,144.2,336z"/>
		<path class="st1" d="M678.9,247.1v-12.3c0-72.8-0.1-148.4-0.1-149.1c-96-19.9-193.5-29.8-291-29.8c-97.5,0-195,9.9-291,29.8
			c0,0.6,0,76.3-0.1,149v12.3c0,63.1-0.1,120.8-0.1,120.8c0.5,17.5,0,36.5,4.7,53.5c0,0.1,0.1,0.1,0.1,0.3c0.3,1.1,0.6,2.1,0.9,3.2
			c6,19.9,14.6,38.5,26.2,55.9c12.1,18.2,26.2,35,41.4,50.7c19.2,19.9,40.4,38.2,63,54.2c74,52.1,152,89.7,154.8,91
			c2.7-1.3,80.7-38.9,154.7-91c22.7-15.9,43.8-34.3,63.1-54.2c15.2-15.7,29.3-32.5,41.4-50.7c11.1-16.7,19.5-34.5,25.4-53.5
			c0.2-0.6,0.4-1.3,0.6-2c0.4-1.3,0.8-2.6,1.1-3.9c4.8-17,4.2-36,4.7-53.5C679,367.9,679,310.3,678.9,247.1z M656,376.4
			c-0.3,13.5-0.5,27.6-3.7,38.8c-0.6,2.3-1.3,4.6-2.1,6.9c-0.3,0.8-0.5,1.6-0.8,2.4c-5.2,15.5-12.4,30.1-21.3,43.6
			c-10.5,15.8-23.2,31.3-38.8,47.5c-18.6,19.3-38.7,36.6-59.8,51.4c-57.5,40.5-117.8,72.2-141.6,84.2c-23.8-12-84.2-43.7-141.6-84.2
			c-21-14.8-41.2-32.1-59.8-51.4c-15.7-16.2-28.4-31.7-38.8-47.5c-9.4-14.2-16.9-29.6-22.1-46c-0.4-1.2-0.8-2.4-1.1-3.7
			c-0.3-1.1-0.6-2.2-0.9-3.3c-3.2-11.3-3.5-25.3-3.7-38.9c-0.1-2.9-0.1-5.9-0.2-8.8c0-4.8,0-60.1,0.1-120.4v-12.3
			c0-50.9,0.1-103.3,0.1-130.4c88.2-17,178.3-25.6,268.2-25.6c89.9,0,180,8.6,268.2,25.6c0,27.1,0,79.4,0,130.4v12.3
			c0.1,60.4,0.1,115.6,0.1,120.4C656.1,370.5,656,373.4,656,376.4z"/>
		<path class="st1" d="M406.7,163.1v132.4c-6.3-0.1-12.6-0.2-18.9-0.2c-6.2,0-12.4,0.1-18.6,0.2V163.1c6.2-0.1,12.4-0.2,18.6-0.2
			C394.1,162.9,400.4,162.9,406.7,163.1z"/>
		<path class="st1" d="M331.7,164v132.4c-12.5,0.5-25,1.2-37.5,2V166C306.7,165.2,319.2,164.5,331.7,164z"/>
		<path class="st1" d="M256.7,169.1v132.4c-12.5,1.2-25,2.5-37.5,4V173.1C231.7,171.6,244.2,170.2,256.7,169.1z"/>
		<path class="st1" d="M181.7,178.3v132.3c-12.5,1.9-25,3.9-37.5,6.1c0.1-18.3,0.1-39.9,0.1-62.3c0.1-23.5,0.1-47.8,0.1-70
			C156.8,182.1,169.2,180.1,181.7,178.3z"/>
		<path class="st1" d="M481.7,166v132.4c-12.5-0.8-25-1.5-37.5-2V164C456.7,164.5,469.2,165.2,481.7,166z"/>
		<path class="st1" d="M556.7,173.1v132.4c-12.5-1.5-25-2.8-37.5-4V169.1C531.7,170.3,544.2,171.6,556.7,173.1z"/>
		<path class="st1" d="M631.5,316.7c-12.5-2.2-24.9-4.2-37.5-6.1V178.3c12.5,1.9,25,3.9,37.4,6.1v70
			C631.4,276.8,631.5,298.5,631.5,316.7z"/>
	</g>
</g>
<g>
	<path class="st1" d="M1012,235.1h113.3v106.3H1012V235.1z M1012,405.5h113.3v106.3H1012V405.5z"/>
	<path class="st1" d="M1261,247.6c14.3,39.6,21.5,81.4,21.5,125.3c0,42.4-6.8,82.9-20.5,121.5c-13.6,38.6-37.3,81.9-71,129.6h-66.2
		c41.3-83.9,62-165.5,62-244.9c0-41.2-4.3-79.9-12.8-116.2c-10.1-42.7-26.5-89.3-49.2-139.6h66.2
		C1223.3,166.6,1246.6,208,1261,247.6z"/>
</g>
</svg>
